<mxfile host="drawio-plugin" modified="2021-04-24T13:35:30.017Z" agent="5.0 (Macintosh; Intel Mac OS X 11_2_3) AppleWebKit/537.36 (KHTML, like Gecko) Chrome/87.0.4280.141 Safari/537.36" etag="pPZzaaBrtQbBm7YtJXLw" version="13.7.9" type="embed" pages="2"><diagram id="sjHFSZAq-qD-e2AMmJLt" name="stackoverflow"><mxGraphModel dx="654" dy="633" grid="1" gridSize="10" guides="1" tooltips="1" connect="1" arrows="1" fold="1" page="1" pageScale="1" pageWidth="827" pageHeight="1169" math="0" shadow="0"><root><mxCell id="0"/><mxCell id="1" parent="0"/><mxCell id="4POMTwVUu1c4IAqobImk-89" value="" style="rounded=0;whiteSpace=wrap;html=1;fontColor=#000000;" parent="1" vertex="1"><mxGeometry x="137.5" y="15" width="642.5" height="635" as="geometry"/></mxCell><mxCell id="4POMTwVUu1c4IAqobImk-11" style="rounded=0;orthogonalLoop=1;jettySize=auto;html=1;exitX=0.5;exitY=0.5;exitDx=0;exitDy=0;exitPerimeter=0;entryX=0;entryY=0.5;entryDx=0;entryDy=0;endArrow=classic;endFill=1;" parent="1" source="4POMTwVUu1c4IAqobImk-1" target="4POMTwVUu1c4IAqobImk-6" edge="1"><mxGeometry relative="1" as="geometry"/></mxCell><mxCell id="4POMTwVUu1c4IAqobImk-18" style="edgeStyle=none;rounded=0;orthogonalLoop=1;jettySize=auto;html=1;exitX=0.5;exitY=0.5;exitDx=0;exitDy=0;exitPerimeter=0;entryX=0;entryY=0.5;entryDx=0;entryDy=0;endArrow=classic;endFill=1;" parent="1" source="4POMTwVUu1c4IAqobImk-1" target="4POMTwVUu1c4IAqobImk-12" edge="1"><mxGeometry relative="1" as="geometry"/></mxCell><mxCell id="4POMTwVUu1c4IAqobImk-28" style="edgeStyle=none;rounded=0;orthogonalLoop=1;jettySize=auto;html=1;exitX=0.5;exitY=0.5;exitDx=0;exitDy=0;exitPerimeter=0;entryX=0;entryY=0.5;entryDx=0;entryDy=0;endArrow=classic;endFill=1;" parent="1" source="4POMTwVUu1c4IAqobImk-1" target="4POMTwVUu1c4IAqobImk-19" edge="1"><mxGeometry relative="1" as="geometry"/></mxCell><mxCell id="4POMTwVUu1c4IAqobImk-81" style="edgeStyle=none;rounded=0;orthogonalLoop=1;jettySize=auto;html=1;exitX=0.5;exitY=0.5;exitDx=0;exitDy=0;exitPerimeter=0;entryX=0;entryY=0.5;entryDx=0;entryDy=0;endArrow=block;endFill=1;fontColor=#000000;" parent="1" source="4POMTwVUu1c4IAqobImk-1" target="4POMTwVUu1c4IAqobImk-80" edge="1"><mxGeometry relative="1" as="geometry"/></mxCell><mxCell id="4POMTwVUu1c4IAqobImk-83" style="edgeStyle=none;rounded=0;orthogonalLoop=1;jettySize=auto;html=1;exitX=0.5;exitY=0.5;exitDx=0;exitDy=0;exitPerimeter=0;entryX=0;entryY=0.5;entryDx=0;entryDy=0;startArrow=none;startFill=0;endArrow=classic;endFill=1;fontColor=#000000;" parent="1" source="4POMTwVUu1c4IAqobImk-1" target="4POMTwVUu1c4IAqobImk-58" edge="1"><mxGeometry relative="1" as="geometry"/></mxCell><mxCell id="4POMTwVUu1c4IAqobImk-1" value="Неавторизованный&lt;br&gt;&amp;nbsp;пользователь" style="shape=umlActor;verticalLabelPosition=bottom;verticalAlign=top;html=1;outlineConnect=0;" parent="1" vertex="1"><mxGeometry x="60" y="140" width="30" height="60" as="geometry"/></mxCell><mxCell id="4POMTwVUu1c4IAqobImk-16" style="edgeStyle=none;rounded=0;orthogonalLoop=1;jettySize=auto;html=1;exitX=0.5;exitY=0;exitDx=0;exitDy=0;exitPerimeter=0;endArrow=classic;endFill=1;" parent="1" source="4POMTwVUu1c4IAqobImk-5" target="4POMTwVUu1c4IAqobImk-1" edge="1"><mxGeometry relative="1" as="geometry"/></mxCell><mxCell id="4POMTwVUu1c4IAqobImk-29" style="edgeStyle=none;rounded=0;orthogonalLoop=1;jettySize=auto;html=1;exitX=0.5;exitY=0.5;exitDx=0;exitDy=0;exitPerimeter=0;entryX=0;entryY=0.5;entryDx=0;entryDy=0;endArrow=classic;endFill=1;" parent="1" source="4POMTwVUu1c4IAqobImk-5" target="4POMTwVUu1c4IAqobImk-17" edge="1"><mxGeometry relative="1" as="geometry"/></mxCell><mxCell id="4POMTwVUu1c4IAqobImk-60" style="edgeStyle=none;rounded=0;orthogonalLoop=1;jettySize=auto;html=1;exitX=0.5;exitY=0.5;exitDx=0;exitDy=0;exitPerimeter=0;entryX=0;entryY=0.5;entryDx=0;entryDy=0;endArrow=classic;endFill=1;fontColor=#000000;" parent="1" source="4POMTwVUu1c4IAqobImk-5" target="4POMTwVUu1c4IAqobImk-59" edge="1"><mxGeometry relative="1" as="geometry"/></mxCell><mxCell id="4POMTwVUu1c4IAqobImk-87" style="edgeStyle=none;rounded=0;orthogonalLoop=1;jettySize=auto;html=1;exitX=0.5;exitY=0.5;exitDx=0;exitDy=0;exitPerimeter=0;entryX=0;entryY=0;entryDx=0;entryDy=0;startArrow=none;startFill=0;endArrow=classic;endFill=1;fontColor=#000000;" parent="1" source="4POMTwVUu1c4IAqobImk-5" target="4POMTwVUu1c4IAqobImk-84" edge="1"><mxGeometry relative="1" as="geometry"/></mxCell><mxCell id="4POMTwVUu1c4IAqobImk-5" value="Авторизованный&lt;br&gt;пользователь" style="shape=umlActor;verticalLabelPosition=bottom;verticalAlign=top;html=1;outlineConnect=0;" parent="1" vertex="1"><mxGeometry x="60" y="420" width="30" height="60" as="geometry"/></mxCell><mxCell id="4POMTwVUu1c4IAqobImk-76" style="edgeStyle=none;rounded=0;orthogonalLoop=1;jettySize=auto;html=1;exitX=0.5;exitY=1;exitDx=0;exitDy=0;dashed=1;endArrow=classic;endFill=1;fontColor=#000000;" parent="1" source="4POMTwVUu1c4IAqobImk-6" target="4POMTwVUu1c4IAqobImk-12" edge="1"><mxGeometry relative="1" as="geometry"/></mxCell><mxCell id="4POMTwVUu1c4IAqobImk-77" value="&amp;lt;&amp;lt;extend&amp;gt;&amp;gt;" style="edgeLabel;html=1;align=center;verticalAlign=middle;resizable=0;points=[];fontColor=#000000;" parent="4POMTwVUu1c4IAqobImk-76" vertex="1" connectable="0"><mxGeometry x="-0.4" y="1" relative="1" as="geometry"><mxPoint as="offset"/></mxGeometry></mxCell><mxCell id="4POMTwVUu1c4IAqobImk-6" value="Регистрация" style="ellipse;whiteSpace=wrap;html=1;fillColor=#f5f5f5;strokeColor=#666666;fontColor=#333333;" parent="1" vertex="1"><mxGeometry x="190" y="40" width="120" height="40" as="geometry"/></mxCell><mxCell id="4POMTwVUu1c4IAqobImk-7" value="Регистрация&lt;br&gt;через соцсети" style="ellipse;whiteSpace=wrap;html=1;fillColor=#f5f5f5;strokeColor=#666666;fontColor=#333333;" parent="1" vertex="1"><mxGeometry x="430" y="20" width="120" height="40" as="geometry"/></mxCell><mxCell id="4POMTwVUu1c4IAqobImk-9" value="" style="endArrow=block;html=1;exitX=0;exitY=0.5;exitDx=0;exitDy=0;entryX=1;entryY=0.5;entryDx=0;entryDy=0;endFill=0;" parent="1" source="4POMTwVUu1c4IAqobImk-7" target="4POMTwVUu1c4IAqobImk-6" edge="1"><mxGeometry width="50" height="50" relative="1" as="geometry"><mxPoint x="210" y="190" as="sourcePoint"/><mxPoint x="260" y="140" as="targetPoint"/></mxGeometry></mxCell><mxCell id="4POMTwVUu1c4IAqobImk-12" value="Авторизация" style="ellipse;whiteSpace=wrap;html=1;fillColor=#f5f5f5;strokeColor=#666666;fontColor=#333333;" parent="1" vertex="1"><mxGeometry x="190" y="120" width="120" height="40" as="geometry"/></mxCell><mxCell id="4POMTwVUu1c4IAqobImk-17" value="Изменение личной информации в профиле&amp;nbsp;" style="ellipse;whiteSpace=wrap;html=1;fillColor=#f5f5f5;strokeColor=#666666;fontColor=#333333;" parent="1" vertex="1"><mxGeometry x="190" y="295" width="160" height="70" as="geometry"/></mxCell><mxCell id="4POMTwVUu1c4IAqobImk-19" value="Просмотр лендинговой&amp;nbsp; страницы&amp;nbsp;" style="ellipse;whiteSpace=wrap;html=1;fillColor=#f5f5f5;strokeColor=#666666;fontColor=#333333;" parent="1" vertex="1"><mxGeometry x="180" y="180" width="160" height="50" as="geometry"/></mxCell><mxCell id="4POMTwVUu1c4IAqobImk-21" value="Поиск" style="ellipse;whiteSpace=wrap;html=1;fillColor=#f5f5f5;strokeColor=#666666;fontColor=#333333;" parent="1" vertex="1"><mxGeometry x="440" y="170" width="120" height="40" as="geometry"/></mxCell><mxCell id="4POMTwVUu1c4IAqobImk-22" value="Просмотр Teams" style="ellipse;whiteSpace=wrap;html=1;fillColor=#f5f5f5;strokeColor=#666666;fontColor=#333333;" parent="1" vertex="1"><mxGeometry x="440" y="230" width="120" height="40" as="geometry"/></mxCell><mxCell id="4POMTwVUu1c4IAqobImk-23" value="" style="endArrow=classic;html=1;exitX=1;exitY=0.5;exitDx=0;exitDy=0;entryX=0;entryY=0.5;entryDx=0;entryDy=0;dashed=1;" parent="1" source="4POMTwVUu1c4IAqobImk-19" target="4POMTwVUu1c4IAqobImk-21" edge="1"><mxGeometry width="50" height="50" relative="1" as="geometry"><mxPoint x="449.9999999999999" y="140" as="sourcePoint"/><mxPoint x="319.9999999999999" y="150" as="targetPoint"/></mxGeometry></mxCell><mxCell id="4POMTwVUu1c4IAqobImk-24" value="&amp;lt;&amp;lt;include&amp;gt;&amp;gt;" style="edgeLabel;html=1;align=center;verticalAlign=middle;resizable=0;points=[];rotation=-10;" parent="4POMTwVUu1c4IAqobImk-23" vertex="1" connectable="0"><mxGeometry x="0.2408" y="-1" relative="1" as="geometry"><mxPoint x="-6.669999999999998" y="3.2800000000000002" as="offset"/></mxGeometry></mxCell><mxCell id="4POMTwVUu1c4IAqobImk-26" value="" style="endArrow=classic;html=1;exitX=1;exitY=0.5;exitDx=0;exitDy=0;entryX=0;entryY=0.5;entryDx=0;entryDy=0;dashed=1;" parent="1" source="4POMTwVUu1c4IAqobImk-19" target="4POMTwVUu1c4IAqobImk-22" edge="1"><mxGeometry width="50" height="50" relative="1" as="geometry"><mxPoint x="350" y="215" as="sourcePoint"/><mxPoint x="489.999999999999" y="200" as="targetPoint"/></mxGeometry></mxCell><mxCell id="4POMTwVUu1c4IAqobImk-27" value="&amp;lt;&amp;lt;include&amp;gt;&amp;gt;" style="edgeLabel;html=1;align=center;verticalAlign=middle;resizable=0;points=[];rotation=15;" parent="4POMTwVUu1c4IAqobImk-26" vertex="1" connectable="0"><mxGeometry x="0.2408" y="-1" relative="1" as="geometry"><mxPoint x="2.9399999999999995" y="-4.03" as="offset"/></mxGeometry></mxCell><mxCell id="4POMTwVUu1c4IAqobImk-39" style="edgeStyle=none;rounded=0;orthogonalLoop=1;jettySize=auto;html=1;entryX=0;entryY=0.5;entryDx=0;entryDy=0;endArrow=none;endFill=0;startArrow=block;startFill=0;exitX=1;exitY=0.5;exitDx=0;exitDy=0;" parent="1" source="4POMTwVUu1c4IAqobImk-21" target="4POMTwVUu1c4IAqobImk-36" edge="1"><mxGeometry relative="1" as="geometry"/></mxCell><mxCell id="J-CWVcGuPWgBzy9MHYu1-3" style="edgeStyle=none;rounded=0;orthogonalLoop=1;jettySize=auto;html=1;exitX=0.5;exitY=1;exitDx=0;exitDy=0;entryX=0.5;entryY=0;entryDx=0;entryDy=0;" parent="1" source="4POMTwVUu1c4IAqobImk-36" target="4POMTwVUu1c4IAqobImk-64" edge="1"><mxGeometry relative="1" as="geometry"/></mxCell><mxCell id="4POMTwVUu1c4IAqobImk-36" value="Поиск вопроса" style="ellipse;whiteSpace=wrap;html=1;fillColor=#f5f5f5;strokeColor=#666666;fontColor=#333333;" parent="1" vertex="1"><mxGeometry x="590" y="220" width="120" height="40" as="geometry"/></mxCell><mxCell id="4POMTwVUu1c4IAqobImk-62" style="edgeStyle=none;rounded=0;orthogonalLoop=1;jettySize=auto;html=1;exitX=0.5;exitY=0;exitDx=0;exitDy=0;entryX=0.5;entryY=1;entryDx=0;entryDy=0;endArrow=classic;endFill=1;fontColor=#000000;dashed=1;" parent="1" source="4POMTwVUu1c4IAqobImk-58" target="4POMTwVUu1c4IAqobImk-59" edge="1"><mxGeometry relative="1" as="geometry"/></mxCell><mxCell id="4POMTwVUu1c4IAqobImk-63" value="&amp;lt;&amp;lt;include&amp;gt;&amp;gt;" style="edgeLabel;html=1;align=center;verticalAlign=middle;resizable=0;points=[];fontColor=#000000;" parent="4POMTwVUu1c4IAqobImk-62" vertex="1" connectable="0"><mxGeometry x="-0.0253" y="-1" relative="1" as="geometry"><mxPoint as="offset"/></mxGeometry></mxCell><mxCell id="4POMTwVUu1c4IAqobImk-66" style="edgeStyle=none;rounded=0;orthogonalLoop=1;jettySize=auto;html=1;exitX=1;exitY=0;exitDx=0;exitDy=0;entryX=0;entryY=0.5;entryDx=0;entryDy=0;dashed=1;endArrow=classic;endFill=1;fontColor=#000000;" parent="1" source="4POMTwVUu1c4IAqobImk-58" target="4POMTwVUu1c4IAqobImk-64" edge="1"><mxGeometry relative="1" as="geometry"><mxPoint x="394.9999999999959" y="360" as="targetPoint"/></mxGeometry></mxCell><mxCell id="4POMTwVUu1c4IAqobImk-67" value="&amp;lt;&amp;lt;include&amp;gt;&amp;gt;" style="edgeLabel;html=1;align=center;verticalAlign=middle;resizable=0;points=[];fontColor=#000000;" parent="4POMTwVUu1c4IAqobImk-66" vertex="1" connectable="0"><mxGeometry x="-0.1314" y="-1" relative="1" as="geometry"><mxPoint x="-1" as="offset"/></mxGeometry></mxCell><mxCell id="4POMTwVUu1c4IAqobImk-85" style="edgeStyle=none;rounded=0;orthogonalLoop=1;jettySize=auto;html=1;exitX=0;exitY=1;exitDx=0;exitDy=0;startArrow=block;startFill=1;endArrow=none;endFill=0;fontColor=#000000;dashed=1;" parent="1" source="4POMTwVUu1c4IAqobImk-58" target="4POMTwVUu1c4IAqobImk-84" edge="1"><mxGeometry relative="1" as="geometry"/></mxCell><mxCell id="4POMTwVUu1c4IAqobImk-86" value="&amp;lt;&amp;lt;include&amp;gt;&amp;gt;" style="edgeLabel;html=1;align=center;verticalAlign=middle;resizable=0;points=[];fontColor=#000000;" parent="4POMTwVUu1c4IAqobImk-85" vertex="1" connectable="0"><mxGeometry x="0.0946" relative="1" as="geometry"><mxPoint as="offset"/></mxGeometry></mxCell><mxCell id="4POMTwVUu1c4IAqobImk-58" value="Просмотр списка вопросов" style="ellipse;whiteSpace=wrap;html=1;" parent="1" vertex="1"><mxGeometry x="200.61" y="490" width="140" height="40" as="geometry"/></mxCell><mxCell id="4POMTwVUu1c4IAqobImk-79" style="edgeStyle=none;rounded=0;orthogonalLoop=1;jettySize=auto;html=1;exitX=0;exitY=1;exitDx=0;exitDy=0;entryX=0;entryY=0;entryDx=0;entryDy=0;endArrow=classic;endFill=1;fontColor=#000000;" parent="1" source="4POMTwVUu1c4IAqobImk-59" target="4POMTwVUu1c4IAqobImk-58" edge="1"><mxGeometry relative="1" as="geometry"/></mxCell><mxCell id="4POMTwVUu1c4IAqobImk-59" value="Просмотр тегов" style="ellipse;whiteSpace=wrap;html=1;" parent="1" vertex="1"><mxGeometry x="210.61" y="400" width="120" height="40" as="geometry"/></mxCell><mxCell id="4POMTwVUu1c4IAqobImk-73" style="edgeStyle=none;rounded=0;orthogonalLoop=1;jettySize=auto;html=1;exitX=1;exitY=0.5;exitDx=0;exitDy=0;entryX=0;entryY=0.5;entryDx=0;entryDy=0;endArrow=classic;endFill=1;fontColor=#000000;" parent="1" source="4POMTwVUu1c4IAqobImk-64" target="4POMTwVUu1c4IAqobImk-69" edge="1"><mxGeometry relative="1" as="geometry"/></mxCell><mxCell id="4POMTwVUu1c4IAqobImk-74" style="edgeStyle=none;rounded=0;orthogonalLoop=1;jettySize=auto;html=1;exitX=1;exitY=0.5;exitDx=0;exitDy=0;entryX=0;entryY=0.5;entryDx=0;entryDy=0;endArrow=classic;endFill=1;fontColor=#000000;" parent="1" source="4POMTwVUu1c4IAqobImk-64" target="4POMTwVUu1c4IAqobImk-70" edge="1"><mxGeometry relative="1" as="geometry"/></mxCell><mxCell id="4POMTwVUu1c4IAqobImk-75" style="edgeStyle=none;rounded=0;orthogonalLoop=1;jettySize=auto;html=1;exitX=1;exitY=0.5;exitDx=0;exitDy=0;entryX=0;entryY=0.5;entryDx=0;entryDy=0;endArrow=classic;endFill=1;fontColor=#000000;" parent="1" source="4POMTwVUu1c4IAqobImk-64" target="4POMTwVUu1c4IAqobImk-72" edge="1"><mxGeometry relative="1" as="geometry"/></mxCell><mxCell id="J-CWVcGuPWgBzy9MHYu1-2" style="rounded=0;orthogonalLoop=1;jettySize=auto;html=1;exitX=1;exitY=0.5;exitDx=0;exitDy=0;entryX=0;entryY=0.5;entryDx=0;entryDy=0;" parent="1" source="4POMTwVUu1c4IAqobImk-64" target="J-CWVcGuPWgBzy9MHYu1-1" edge="1"><mxGeometry relative="1" as="geometry"/></mxCell><mxCell id="4POMTwVUu1c4IAqobImk-64" value="Просмотр вопроса" style="ellipse;whiteSpace=wrap;html=1;fillColor=#f5f5f5;strokeColor=#666666;fontColor=#333333;" parent="1" vertex="1"><mxGeometry x="385" y="430" width="120" height="40" as="geometry"/></mxCell><mxCell id="4POMTwVUu1c4IAqobImk-69" value="Добавление вопроса в закладки" style="ellipse;whiteSpace=wrap;html=1;fillColor=#f5f5f5;strokeColor=#666666;fontColor=#333333;" parent="1" vertex="1"><mxGeometry x="590" y="360" width="160" height="40" as="geometry"/></mxCell><mxCell id="4POMTwVUu1c4IAqobImk-70" value="Подписаться на обновления этого вопроса" style="ellipse;whiteSpace=wrap;html=1;fillColor=#f5f5f5;strokeColor=#666666;fontColor=#333333;" parent="1" vertex="1"><mxGeometry x="590" y="410" width="160" height="60" as="geometry"/></mxCell><mxCell id="4POMTwVUu1c4IAqobImk-72" value="Добавление комментария" style="ellipse;whiteSpace=wrap;html=1;strokeColor=#666666;fillColor=#f5f5f5;fontColor=#333333;" parent="1" vertex="1"><mxGeometry x="590" y="480" width="160" height="40" as="geometry"/></mxCell><mxCell id="4POMTwVUu1c4IAqobImk-80" value="Задать вопрос" style="ellipse;whiteSpace=wrap;html=1;fillColor=#f5f5f5;strokeColor=#666666;fontColor=#333333;" parent="1" vertex="1"><mxGeometry x="190" y="240" width="160.61" height="45" as="geometry"/></mxCell><mxCell id="4POMTwVUu1c4IAqobImk-84" value="Задать вопрос" style="ellipse;whiteSpace=wrap;html=1;" parent="1" vertex="1"><mxGeometry x="180" y="590" width="140" height="40" as="geometry"/></mxCell><mxCell id="kNwSGlWI6EoEnuLgUwLV-2" style="rounded=0;orthogonalLoop=1;jettySize=auto;html=1;exitX=0;exitY=0.5;exitDx=0;exitDy=0;entryX=0.888;entryY=0.174;entryDx=0;entryDy=0;entryPerimeter=0;startArrow=none;startFill=0;endArrow=block;endFill=0;" parent="1" source="kNwSGlWI6EoEnuLgUwLV-1" target="4POMTwVUu1c4IAqobImk-12" edge="1"><mxGeometry relative="1" as="geometry"/></mxCell><mxCell id="kNwSGlWI6EoEnuLgUwLV-1" value="Авторизация&lt;br&gt;через соцсети" style="ellipse;whiteSpace=wrap;html=1;fillColor=#f5f5f5;strokeColor=#666666;fontColor=#333333;" parent="1" vertex="1"><mxGeometry x="430" y="70" width="120" height="40" as="geometry"/></mxCell><mxCell id="kNwSGlWI6EoEnuLgUwLV-5" style="edgeStyle=none;rounded=0;orthogonalLoop=1;jettySize=auto;html=1;exitX=0;exitY=0.5;exitDx=0;exitDy=0;entryX=1;entryY=0;entryDx=0;entryDy=0;startArrow=none;startFill=0;endArrow=classic;endFill=0;" parent="1" source="kNwSGlWI6EoEnuLgUwLV-4" target="4POMTwVUu1c4IAqobImk-21" edge="1"><mxGeometry relative="1" as="geometry"/></mxCell><mxCell id="kNwSGlWI6EoEnuLgUwLV-4" value="Поиск пользователя" style="ellipse;whiteSpace=wrap;html=1;fillColor=#f5f5f5;strokeColor=#666666;fontColor=#333333;" parent="1" vertex="1"><mxGeometry x="580" y="120" width="130" height="40" as="geometry"/></mxCell><mxCell id="memHnsQBEg1RkqpKRjYS-1" value="" style="ellipse;whiteSpace=wrap;html=1;fillColor=#f5f5f5;strokeColor=#666666;fontColor=#333333;" parent="1" vertex="1"><mxGeometry x="920" y="20" width="120" height="40" as="geometry"/></mxCell><mxCell id="memHnsQBEg1RkqpKRjYS-4" value="" style="ellipse;whiteSpace=wrap;html=1;fillColor=#dae8fc;strokeColor=#6c8ebf;" parent="1" vertex="1"><mxGeometry x="920" y="80" width="120" height="40" as="geometry"/></mxCell><mxCell id="memHnsQBEg1RkqpKRjYS-5" value="done" style="text;html=1;align=center;verticalAlign=middle;resizable=0;points=[];autosize=1;" parent="1" vertex="1"><mxGeometry x="960" y="30" width="40" height="20" as="geometry"/></mxCell><mxCell id="memHnsQBEg1RkqpKRjYS-6" value="failed" style="text;html=1;align=center;verticalAlign=middle;resizable=0;points=[];autosize=1;" parent="1" vertex="1"><mxGeometry x="960" y="90" width="40" height="20" as="geometry"/></mxCell><mxCell id="J-CWVcGuPWgBzy9MHYu1-1" value="Поделиться вопросом" style="ellipse;whiteSpace=wrap;html=1;fillColor=#f5f5f5;strokeColor=#666666;fontColor=#333333;" parent="1" vertex="1"><mxGeometry x="585" y="530" width="160" height="40" as="geometry"/></mxCell></root></mxGraphModel></diagram><diagram name="booking" id="FFCg5jETaVW25En7gltQ"><mxGraphModel dx="720" dy="585" grid="1" gridSize="10" guides="1" tooltips="1" connect="1" arrows="1" fold="1" page="1" pageScale="1" pageWidth="827" pageHeight="1169" math="0" shadow="0"><root><mxCell id="xoJYTR2tFOuBfvwNBBHp-0"/><mxCell id="xoJYTR2tFOuBfvwNBBHp-1" parent="xoJYTR2tFOuBfvwNBBHp-0"/><mxCell id="xoJYTR2tFOuBfvwNBBHp-91" value="" style="rounded=0;whiteSpace=wrap;html=1;" parent="xoJYTR2tFOuBfvwNBBHp-1" vertex="1"><mxGeometry x="170" y="30" width="800" height="520" as="geometry"/></mxCell><mxCell id="xoJYTR2tFOuBfvwNBBHp-3" style="rounded=0;orthogonalLoop=1;jettySize=auto;html=1;exitX=0.5;exitY=0.5;exitDx=0;exitDy=0;exitPerimeter=0;entryX=0;entryY=0.5;entryDx=0;entryDy=0;endArrow=classic;endFill=1;" parent="xoJYTR2tFOuBfvwNBBHp-1" source="xoJYTR2tFOuBfvwNBBHp-8" target="xoJYTR2tFOuBfvwNBBHp-16" edge="1"><mxGeometry relative="1" as="geometry"/></mxCell><mxCell id="xoJYTR2tFOuBfvwNBBHp-4" style="edgeStyle=none;rounded=0;orthogonalLoop=1;jettySize=auto;html=1;exitX=0.5;exitY=0.5;exitDx=0;exitDy=0;exitPerimeter=0;entryX=0;entryY=0.5;entryDx=0;entryDy=0;endArrow=classic;endFill=1;" parent="xoJYTR2tFOuBfvwNBBHp-1" source="xoJYTR2tFOuBfvwNBBHp-8" target="xoJYTR2tFOuBfvwNBBHp-20" edge="1"><mxGeometry relative="1" as="geometry"/></mxCell><mxCell id="xoJYTR2tFOuBfvwNBBHp-5" style="edgeStyle=none;rounded=0;orthogonalLoop=1;jettySize=auto;html=1;exitX=0.5;exitY=0.5;exitDx=0;exitDy=0;exitPerimeter=0;entryX=0;entryY=0.5;entryDx=0;entryDy=0;endArrow=classic;endFill=1;" parent="xoJYTR2tFOuBfvwNBBHp-1" source="xoJYTR2tFOuBfvwNBBHp-8" target="xoJYTR2tFOuBfvwNBBHp-23" edge="1"><mxGeometry relative="1" as="geometry"/></mxCell><mxCell id="xoJYTR2tFOuBfvwNBBHp-8" value="Неавторизованный&lt;br&gt;&amp;nbsp;пользователь" style="shape=umlActor;verticalLabelPosition=bottom;verticalAlign=top;html=1;outlineConnect=0;" parent="xoJYTR2tFOuBfvwNBBHp-1" vertex="1"><mxGeometry x="60" y="140" width="30" height="60" as="geometry"/></mxCell><mxCell id="xoJYTR2tFOuBfvwNBBHp-9" style="edgeStyle=none;rounded=0;orthogonalLoop=1;jettySize=auto;html=1;exitX=0.5;exitY=0;exitDx=0;exitDy=0;exitPerimeter=0;endArrow=classic;endFill=1;" parent="xoJYTR2tFOuBfvwNBBHp-1" source="xoJYTR2tFOuBfvwNBBHp-13" target="xoJYTR2tFOuBfvwNBBHp-8" edge="1"><mxGeometry relative="1" as="geometry"/></mxCell><mxCell id="xoJYTR2tFOuBfvwNBBHp-10" style="edgeStyle=none;rounded=0;orthogonalLoop=1;jettySize=auto;html=1;exitX=0.5;exitY=0.5;exitDx=0;exitDy=0;exitPerimeter=0;entryX=0;entryY=0.5;entryDx=0;entryDy=0;endArrow=classic;endFill=1;" parent="xoJYTR2tFOuBfvwNBBHp-1" source="xoJYTR2tFOuBfvwNBBHp-13" target="xoJYTR2tFOuBfvwNBBHp-22" edge="1"><mxGeometry relative="1" as="geometry"/></mxCell><mxCell id="xoJYTR2tFOuBfvwNBBHp-11" style="edgeStyle=none;rounded=0;orthogonalLoop=1;jettySize=auto;html=1;exitX=0.5;exitY=0.5;exitDx=0;exitDy=0;exitPerimeter=0;entryX=0;entryY=0.5;entryDx=0;entryDy=0;endArrow=classic;endFill=1;fontColor=#000000;" parent="xoJYTR2tFOuBfvwNBBHp-1" source="xoJYTR2tFOuBfvwNBBHp-13" target="xoJYTR2tFOuBfvwNBBHp-50" edge="1"><mxGeometry relative="1" as="geometry"/></mxCell><mxCell id="xoJYTR2tFOuBfvwNBBHp-13" value="Авторизованный&lt;br&gt;пользователь" style="shape=umlActor;verticalLabelPosition=bottom;verticalAlign=top;html=1;outlineConnect=0;" parent="xoJYTR2tFOuBfvwNBBHp-1" vertex="1"><mxGeometry x="60" y="420" width="30" height="60" as="geometry"/></mxCell><mxCell id="xoJYTR2tFOuBfvwNBBHp-14" style="edgeStyle=none;rounded=0;orthogonalLoop=1;jettySize=auto;html=1;exitX=0.5;exitY=1;exitDx=0;exitDy=0;dashed=1;endArrow=classic;endFill=1;fontColor=#000000;" parent="xoJYTR2tFOuBfvwNBBHp-1" source="xoJYTR2tFOuBfvwNBBHp-16" target="xoJYTR2tFOuBfvwNBBHp-20" edge="1"><mxGeometry relative="1" as="geometry"/></mxCell><mxCell id="xoJYTR2tFOuBfvwNBBHp-15" value="&amp;lt;&amp;lt;extend&amp;gt;&amp;gt;" style="edgeLabel;html=1;align=center;verticalAlign=middle;resizable=0;points=[];fontColor=#000000;" parent="xoJYTR2tFOuBfvwNBBHp-14" vertex="1" connectable="0"><mxGeometry x="-0.4" y="1" relative="1" as="geometry"><mxPoint as="offset"/></mxGeometry></mxCell><mxCell id="xoJYTR2tFOuBfvwNBBHp-16" value="Регистрация" style="ellipse;whiteSpace=wrap;html=1;" parent="xoJYTR2tFOuBfvwNBBHp-1" vertex="1"><mxGeometry x="190" y="90" width="120" height="40" as="geometry"/></mxCell><mxCell id="xoJYTR2tFOuBfvwNBBHp-17" value="Регистрация&lt;br&gt;через соцсети" style="ellipse;whiteSpace=wrap;html=1;" parent="xoJYTR2tFOuBfvwNBBHp-1" vertex="1"><mxGeometry x="430" y="60" width="120" height="40" as="geometry"/></mxCell><mxCell id="xoJYTR2tFOuBfvwNBBHp-18" value="" style="endArrow=block;html=1;exitX=0;exitY=0.5;exitDx=0;exitDy=0;entryX=1;entryY=0.5;entryDx=0;entryDy=0;endFill=0;" parent="xoJYTR2tFOuBfvwNBBHp-1" source="xoJYTR2tFOuBfvwNBBHp-17" target="xoJYTR2tFOuBfvwNBBHp-16" edge="1"><mxGeometry width="50" height="50" relative="1" as="geometry"><mxPoint x="210" y="240" as="sourcePoint"/><mxPoint x="260" y="190" as="targetPoint"/></mxGeometry></mxCell><mxCell id="xoJYTR2tFOuBfvwNBBHp-19" style="edgeStyle=none;rounded=0;orthogonalLoop=1;jettySize=auto;html=1;exitX=1;exitY=0.5;exitDx=0;exitDy=0;endArrow=none;endFill=0;fontColor=#000000;" parent="xoJYTR2tFOuBfvwNBBHp-1" source="xoJYTR2tFOuBfvwNBBHp-20" target="xoJYTR2tFOuBfvwNBBHp-21" edge="1"><mxGeometry relative="1" as="geometry"/></mxCell><mxCell id="xoJYTR2tFOuBfvwNBBHp-20" value="Авторизация" style="ellipse;whiteSpace=wrap;html=1;" parent="xoJYTR2tFOuBfvwNBBHp-1" vertex="1"><mxGeometry x="190" y="170" width="120" height="40" as="geometry"/></mxCell><mxCell id="xoJYTR2tFOuBfvwNBBHp-21" value="Восстановление пароля" style="ellipse;whiteSpace=wrap;html=1;" parent="xoJYTR2tFOuBfvwNBBHp-1" vertex="1"><mxGeometry x="440" y="160" width="120" height="40" as="geometry"/></mxCell><mxCell id="xoJYTR2tFOuBfvwNBBHp-22" value="Изменение личной информации в профиле&amp;nbsp;" style="ellipse;whiteSpace=wrap;html=1;" parent="xoJYTR2tFOuBfvwNBBHp-1" vertex="1"><mxGeometry x="190" y="370" width="160" height="70" as="geometry"/></mxCell><mxCell id="xoJYTR2tFOuBfvwNBBHp-69" style="edgeStyle=none;rounded=0;orthogonalLoop=1;jettySize=auto;html=1;exitX=1;exitY=0.5;exitDx=0;exitDy=0;entryX=0;entryY=0;entryDx=0;entryDy=0;startArrow=none;startFill=0;endArrow=classic;endFill=1;" parent="xoJYTR2tFOuBfvwNBBHp-1" source="xoJYTR2tFOuBfvwNBBHp-23" target="xoJYTR2tFOuBfvwNBBHp-68" edge="1"><mxGeometry relative="1" as="geometry"/></mxCell><mxCell id="xoJYTR2tFOuBfvwNBBHp-71" style="edgeStyle=none;rounded=0;orthogonalLoop=1;jettySize=auto;html=1;exitX=1;exitY=0.5;exitDx=0;exitDy=0;entryX=0;entryY=0;entryDx=0;entryDy=0;startArrow=none;startFill=0;endArrow=classic;endFill=1;" parent="xoJYTR2tFOuBfvwNBBHp-1" source="xoJYTR2tFOuBfvwNBBHp-23" target="xoJYTR2tFOuBfvwNBBHp-70" edge="1"><mxGeometry relative="1" as="geometry"/></mxCell><mxCell id="xoJYTR2tFOuBfvwNBBHp-23" value="Просмотр основной страницы" style="ellipse;whiteSpace=wrap;html=1;" parent="xoJYTR2tFOuBfvwNBBHp-1" vertex="1"><mxGeometry x="180" y="230" width="160" height="50" as="geometry"/></mxCell><mxCell id="xoJYTR2tFOuBfvwNBBHp-76" style="edgeStyle=none;rounded=0;orthogonalLoop=1;jettySize=auto;html=1;exitX=1;exitY=0.5;exitDx=0;exitDy=0;entryX=0;entryY=0.5;entryDx=0;entryDy=0;startArrow=none;startFill=0;endArrow=classic;endFill=1;" parent="xoJYTR2tFOuBfvwNBBHp-1" source="xoJYTR2tFOuBfvwNBBHp-24" target="xoJYTR2tFOuBfvwNBBHp-75" edge="1"><mxGeometry relative="1" as="geometry"/></mxCell><mxCell id="xoJYTR2tFOuBfvwNBBHp-24" value="Поиск жилья" style="ellipse;whiteSpace=wrap;html=1;" parent="xoJYTR2tFOuBfvwNBBHp-1" vertex="1"><mxGeometry x="440" y="220" width="120" height="40" as="geometry"/></mxCell><mxCell id="xoJYTR2tFOuBfvwNBBHp-26" value="" style="endArrow=classic;html=1;exitX=1;exitY=0.5;exitDx=0;exitDy=0;entryX=0;entryY=0.5;entryDx=0;entryDy=0;" parent="xoJYTR2tFOuBfvwNBBHp-1" source="xoJYTR2tFOuBfvwNBBHp-23" target="xoJYTR2tFOuBfvwNBBHp-24" edge="1"><mxGeometry width="50" height="50" relative="1" as="geometry"><mxPoint x="449.9999999999999" y="190" as="sourcePoint"/><mxPoint x="319.9999999999999" y="200" as="targetPoint"/></mxGeometry></mxCell><mxCell id="xoJYTR2tFOuBfvwNBBHp-28" value="" style="endArrow=classic;html=1;exitX=1;exitY=0.5;exitDx=0;exitDy=0;entryX=0;entryY=0.5;entryDx=0;entryDy=0;" parent="xoJYTR2tFOuBfvwNBBHp-1" source="xoJYTR2tFOuBfvwNBBHp-23" edge="1"><mxGeometry width="50" height="50" relative="1" as="geometry"><mxPoint x="350" y="265" as="sourcePoint"/><mxPoint x="440" y="300" as="targetPoint"/></mxGeometry></mxCell><mxCell id="xoJYTR2tFOuBfvwNBBHp-38" style="edgeStyle=none;rounded=0;orthogonalLoop=1;jettySize=auto;html=1;exitX=0;exitY=0.5;exitDx=0;exitDy=0;entryX=0.935;entryY=0.285;entryDx=0;entryDy=0;endArrow=block;endFill=0;fontColor=#FF0000;entryPerimeter=0;" parent="xoJYTR2tFOuBfvwNBBHp-1" source="xoJYTR2tFOuBfvwNBBHp-41" target="xoJYTR2tFOuBfvwNBBHp-24" edge="1"><mxGeometry relative="1" as="geometry"/></mxCell><mxCell id="xoJYTR2tFOuBfvwNBBHp-41" value="Просмотр по фильтрам" style="ellipse;whiteSpace=wrap;html=1;" parent="xoJYTR2tFOuBfvwNBBHp-1" vertex="1"><mxGeometry x="740" y="150" width="160" height="40" as="geometry"/></mxCell><mxCell id="xoJYTR2tFOuBfvwNBBHp-85" style="edgeStyle=none;rounded=0;orthogonalLoop=1;jettySize=auto;html=1;exitX=1;exitY=0.5;exitDx=0;exitDy=0;entryX=0;entryY=1;entryDx=0;entryDy=0;startArrow=none;startFill=0;endArrow=block;endFill=1;" parent="xoJYTR2tFOuBfvwNBBHp-1" source="xoJYTR2tFOuBfvwNBBHp-50" target="xoJYTR2tFOuBfvwNBBHp-84" edge="1"><mxGeometry relative="1" as="geometry"/></mxCell><mxCell id="xoJYTR2tFOuBfvwNBBHp-50" value="Просмотр избранного" style="ellipse;whiteSpace=wrap;html=1;" parent="xoJYTR2tFOuBfvwNBBHp-1" vertex="1"><mxGeometry x="210.61" y="450" width="120" height="40" as="geometry"/></mxCell><mxCell id="xoJYTR2tFOuBfvwNBBHp-60" style="rounded=0;orthogonalLoop=1;jettySize=auto;html=1;exitX=0;exitY=0.5;exitDx=0;exitDy=0;entryX=0.932;entryY=0.214;entryDx=0;entryDy=0;entryPerimeter=0;startArrow=none;startFill=0;endArrow=classic;endFill=0;" parent="xoJYTR2tFOuBfvwNBBHp-1" source="xoJYTR2tFOuBfvwNBBHp-61" target="xoJYTR2tFOuBfvwNBBHp-20" edge="1"><mxGeometry relative="1" as="geometry"/></mxCell><mxCell id="xoJYTR2tFOuBfvwNBBHp-61" value="Авторизация&lt;br&gt;через соцсети" style="ellipse;whiteSpace=wrap;html=1;" parent="xoJYTR2tFOuBfvwNBBHp-1" vertex="1"><mxGeometry x="463.75" y="110" width="120" height="40" as="geometry"/></mxCell><mxCell id="xoJYTR2tFOuBfvwNBBHp-66" style="edgeStyle=none;rounded=0;orthogonalLoop=1;jettySize=auto;html=1;exitX=0;exitY=0.5;exitDx=0;exitDy=0;entryX=1;entryY=0;entryDx=0;entryDy=0;startArrow=none;startFill=0;endArrow=classic;endFill=0;" parent="xoJYTR2tFOuBfvwNBBHp-1" source="xoJYTR2tFOuBfvwNBBHp-65" target="xoJYTR2tFOuBfvwNBBHp-20" edge="1"><mxGeometry relative="1" as="geometry"/></mxCell><mxCell id="xoJYTR2tFOuBfvwNBBHp-65" value="Авторизация&lt;br&gt;через ссылку на почте" style="ellipse;whiteSpace=wrap;html=1;" parent="xoJYTR2tFOuBfvwNBBHp-1" vertex="1"><mxGeometry x="330.61" y="100" width="120" height="40" as="geometry"/></mxCell><mxCell id="xoJYTR2tFOuBfvwNBBHp-67" value="Смена языка" style="ellipse;whiteSpace=wrap;html=1;" parent="xoJYTR2tFOuBfvwNBBHp-1" vertex="1"><mxGeometry x="440" y="270" width="120" height="40" as="geometry"/></mxCell><mxCell id="xoJYTR2tFOuBfvwNBBHp-68" value="Смена валюты" style="ellipse;whiteSpace=wrap;html=1;" parent="xoJYTR2tFOuBfvwNBBHp-1" vertex="1"><mxGeometry x="440" y="320" width="120" height="40" as="geometry"/></mxCell><mxCell id="xoJYTR2tFOuBfvwNBBHp-70" value="Просмотр автомобилей, вариантов досуга, авиабилеты" style="ellipse;whiteSpace=wrap;html=1;" parent="xoJYTR2tFOuBfvwNBBHp-1" vertex="1"><mxGeometry x="440" y="370" width="210" height="60" as="geometry"/></mxCell><mxCell id="xoJYTR2tFOuBfvwNBBHp-73" style="edgeStyle=none;rounded=0;orthogonalLoop=1;jettySize=auto;html=1;exitX=0;exitY=1;exitDx=0;exitDy=0;entryX=1;entryY=0;entryDx=0;entryDy=0;startArrow=none;startFill=0;endArrow=classic;endFill=1;dashed=1;" parent="xoJYTR2tFOuBfvwNBBHp-1" source="xoJYTR2tFOuBfvwNBBHp-72" target="xoJYTR2tFOuBfvwNBBHp-24" edge="1"><mxGeometry relative="1" as="geometry"/></mxCell><mxCell id="xoJYTR2tFOuBfvwNBBHp-74" value="&amp;lt;&amp;lt;include&amp;gt;&amp;gt;" style="edgeLabel;html=1;align=center;verticalAlign=middle;resizable=0;points=[];" parent="xoJYTR2tFOuBfvwNBBHp-73" vertex="1" connectable="0"><mxGeometry x="0.07" relative="1" as="geometry"><mxPoint as="offset"/></mxGeometry></mxCell><mxCell id="xoJYTR2tFOuBfvwNBBHp-72" value="Просмотр по карте" style="ellipse;whiteSpace=wrap;html=1;" parent="xoJYTR2tFOuBfvwNBBHp-1" vertex="1"><mxGeometry x="610" y="140" width="120" height="40" as="geometry"/></mxCell><mxCell id="xoJYTR2tFOuBfvwNBBHp-80" style="edgeStyle=none;rounded=0;orthogonalLoop=1;jettySize=auto;html=1;exitX=1;exitY=0.5;exitDx=0;exitDy=0;entryX=0;entryY=0.5;entryDx=0;entryDy=0;startArrow=none;startFill=0;endArrow=classic;endFill=1;" parent="xoJYTR2tFOuBfvwNBBHp-1" source="xoJYTR2tFOuBfvwNBBHp-75" target="xoJYTR2tFOuBfvwNBBHp-77" edge="1"><mxGeometry relative="1" as="geometry"/></mxCell><mxCell id="xoJYTR2tFOuBfvwNBBHp-81" style="edgeStyle=none;rounded=0;orthogonalLoop=1;jettySize=auto;html=1;exitX=1;exitY=0.5;exitDx=0;exitDy=0;entryX=0;entryY=0.5;entryDx=0;entryDy=0;startArrow=none;startFill=0;endArrow=classic;endFill=1;" parent="xoJYTR2tFOuBfvwNBBHp-1" source="xoJYTR2tFOuBfvwNBBHp-75" target="xoJYTR2tFOuBfvwNBBHp-78" edge="1"><mxGeometry relative="1" as="geometry"/></mxCell><mxCell id="xoJYTR2tFOuBfvwNBBHp-82" style="edgeStyle=none;rounded=0;orthogonalLoop=1;jettySize=auto;html=1;exitX=1;exitY=0.5;exitDx=0;exitDy=0;startArrow=none;startFill=0;endArrow=classic;endFill=1;entryX=0;entryY=0.5;entryDx=0;entryDy=0;" parent="xoJYTR2tFOuBfvwNBBHp-1" source="xoJYTR2tFOuBfvwNBBHp-75" target="xoJYTR2tFOuBfvwNBBHp-79" edge="1"><mxGeometry relative="1" as="geometry"><mxPoint x="843" y="320" as="targetPoint"/></mxGeometry></mxCell><mxCell id="xoJYTR2tFOuBfvwNBBHp-83" style="edgeStyle=none;rounded=0;orthogonalLoop=1;jettySize=auto;html=1;exitX=1;exitY=0.5;exitDx=0;exitDy=0;startArrow=none;startFill=0;endArrow=block;endFill=0;" parent="xoJYTR2tFOuBfvwNBBHp-1" source="xoJYTR2tFOuBfvwNBBHp-75" edge="1"><mxGeometry relative="1" as="geometry"><mxPoint x="830" y="390" as="targetPoint"/></mxGeometry></mxCell><mxCell id="xoJYTR2tFOuBfvwNBBHp-87" value="&amp;lt;&amp;lt;extend&amp;gt;&amp;gt;" style="edgeLabel;html=1;align=center;verticalAlign=middle;resizable=0;points=[];" parent="xoJYTR2tFOuBfvwNBBHp-83" vertex="1" connectable="0"><mxGeometry x="-0.0042" y="4" relative="1" as="geometry"><mxPoint x="-1" as="offset"/></mxGeometry></mxCell><mxCell id="xoJYTR2tFOuBfvwNBBHp-75" value="Просмотр варианта" style="ellipse;whiteSpace=wrap;html=1;" parent="xoJYTR2tFOuBfvwNBBHp-1" vertex="1"><mxGeometry x="630" y="220" width="120" height="40" as="geometry"/></mxCell><mxCell id="xoJYTR2tFOuBfvwNBBHp-77" value="Забронировать" style="ellipse;whiteSpace=wrap;html=1;" parent="xoJYTR2tFOuBfvwNBBHp-1" vertex="1"><mxGeometry x="840" y="200" width="120" height="40" as="geometry"/></mxCell><mxCell id="xoJYTR2tFOuBfvwNBBHp-78" value="Просмотр вопросов" style="ellipse;whiteSpace=wrap;html=1;" parent="xoJYTR2tFOuBfvwNBBHp-1" vertex="1"><mxGeometry x="840" y="250" width="120" height="40" as="geometry"/></mxCell><mxCell id="xoJYTR2tFOuBfvwNBBHp-79" value="Просмотр отзывов" style="ellipse;whiteSpace=wrap;html=1;" parent="xoJYTR2tFOuBfvwNBBHp-1" vertex="1"><mxGeometry x="840" y="300" width="120" height="40" as="geometry"/></mxCell><mxCell id="xoJYTR2tFOuBfvwNBBHp-84" value="Добавить в избранное" style="ellipse;whiteSpace=wrap;html=1;" parent="xoJYTR2tFOuBfvwNBBHp-1" vertex="1"><mxGeometry x="830" y="370" width="120" height="50" as="geometry"/></mxCell></root></mxGraphModel></diagram></mxfile>